<svg width="17" height="22" viewBox="0 0 17 22" fill="none" xmlns="http://www.w3.org/2000/svg">
<path d="M4.79977 21.6113C0.633517 19.1864 -0.463369 16.8912 0.163752 13.7564C0.626722 11.4417 2.14269 9.55841 2.28805 7.24812C2.93562 8.46514 3.20621 9.34271 3.27856 10.6145C5.33818 8.00849 6.69921 4.40088 6.7798 0.611328C6.7798 0.611328 12.1443 3.8665 12.4964 8.78348C12.9582 7.77 13.1906 6.16037 12.7288 5.11716C14.1142 6.16042 22.2233 15.4218 11.6305 21.6113C13.622 17.6067 12.1442 12.2031 8.68635 9.70751C8.91728 10.7806 8.5124 14.7829 6.98261 16.5415C7.40648 13.603 6.5793 12.3605 6.5793 12.3605C6.5793 12.3605 6.2954 14.0064 5.19387 15.6691C4.18798 17.1874 3.49101 18.7989 4.79977 21.6113Z" fill="#FF9A24"/>
</svg>
